{
    "accessors" : [
        {
            "bufferView" : 0,
            "componentType" : 5125,
            "count" : 1860471,
            "max" : [
                1860470
            ],
            "min" : [
                0
            ],
            "type" : "SCALAR"
        },
        {
            "bufferView" : 1,
            "componentType" : 5126,
            "count" : 1860471,
            "max" : [
                1.2695485353469849,
                1.25312340259552,
                1.231185793876648
            ],
            "min" : [
                -1.2697415351867676,
                -1.253186583518982,
                -1.261765956878662
            ],
            "type" : "VEC3"
        },
        {
            "bufferView" : 2,
            "componentType" : 5126,
            "count" : 1860471,
            "max" : [
                0.9999973773956299,
                0.9999979734420776,
                0.9999984502792358
            ],
            "min" : [
                -0.9999985098838806,
                -0.9999969005584717,
                -0.9999969601631165
            ],
            "type" : "VEC3"
        }
    ],
    "asset" : {
        "generator" : "Khronos Blender glTF 2.0 exporter",
        "version" : "2.0"
    },
    "bufferViews" : [
        {
            "buffer" : 0,
            "byteLength" : 7441884,
            "byteOffset" : 0,
            "target" : 34963
        },
        {
            "buffer" : 0,
            "byteLength" : 22325652,
            "byteOffset" : 7441884,
            "target" : 34962
        },
        {
            "buffer" : 0,
            "byteLength" : 22325652,
            "byteOffset" : 29767536,
            "target" : 34962
        }
    ],
    "buffers" : [
        {
            "byteLength" : 52093188,
            "uri" : "coronavirus.bin"
        }
    ],
    "meshes" : [
        {
            "name" : "Group63892",
            "primitives" : [
                {
                    "attributes" : {
                        "NORMAL" : 2,
                        "POSITION" : 1
                    },
                    "indices" : 0
                }
            ]
        }
    ],
    "nodes" : [
        {
            "name" : "Camera",
            "rotation" : [
                0.483536034822464,
                0.33687159419059753,
                -0.20870360732078552,
                0.7804827094078064
            ],
            "translation" : [
                7.481131553649902,
                5.34366512298584,
                6.5076398849487305
            ]
        },
        {
            "mesh" : 0,
            "name" : "Group63892",
            "rotation" : [
                0.7071068286895752,
                0.0,
                -0.0,
                0.7071067094802856
            ]
        },
        {
            "name" : "Lamp",
            "rotation" : [
                0.16907575726509094,
                0.7558802962303162,
                -0.27217137813568115,
                0.570947527885437
            ],
            "scale" : [
                1.0,
                1.0,
                0.9999999403953552
            ],
            "translation" : [
                4.076245307922363,
                5.903861999511719,
                -1.0054539442062378
            ]
        }
    ],
    "scene" : 0,
    "scenes" : [
        {
            "name" : "Scene",
            "nodes" : [
                1,
                2,
                0
            ]
        }
    ]
}
